<mxfile host="app.diagrams.net" modified="2021-06-01T03:46:38.946Z" agent="5.0 (Macintosh; Intel Mac OS X 10_15_7) AppleWebKit/537.36 (KHTML, like Gecko) Chrome/90.0.4430.212 Safari/537.36" etag="32V2ALBxEHd_emaMMTR5" version="14.7.3" type="github">
  <diagram id="FVhtaX8cwOrP204iMpnX" name="Page-1">
    <mxGraphModel dx="851" dy="769" grid="1" gridSize="10" guides="1" tooltips="1" connect="1" arrows="1" fold="1" page="1" pageScale="1" pageWidth="1169" pageHeight="827" math="0" shadow="0">
      <root>
        <mxCell id="0" />
        <mxCell id="1" parent="0" />
        <mxCell id="YhsctEqUOotuku0o7zmU-1" value="" style="outlineConnect=0;dashed=0;verticalLabelPosition=bottom;verticalAlign=top;align=center;html=1;shape=mxgraph.aws3.traditional_server;fillColor=#7D7C7C;gradientColor=none;" vertex="1" parent="1">
          <mxGeometry x="443" y="218.25" width="46.5" height="63" as="geometry" />
        </mxCell>
        <mxCell id="YhsctEqUOotuku0o7zmU-2" value="apple.com" style="text;html=1;align=center;verticalAlign=middle;resizable=0;points=[];autosize=1;strokeColor=none;" vertex="1" parent="1">
          <mxGeometry x="431.25" y="180" width="70" height="20" as="geometry" />
        </mxCell>
        <mxCell id="YhsctEqUOotuku0o7zmU-3" value="" style="verticalLabelPosition=bottom;aspect=fixed;html=1;verticalAlign=top;strokeColor=none;align=center;outlineConnect=0;shape=mxgraph.citrix.dns_server;" vertex="1" parent="1">
          <mxGeometry x="534.05" y="211.25" width="57.89" height="70" as="geometry" />
        </mxCell>
        <mxCell id="YhsctEqUOotuku0o7zmU-4" value="DNS Server" style="text;html=1;align=center;verticalAlign=middle;resizable=0;points=[];autosize=1;strokeColor=none;" vertex="1" parent="1">
          <mxGeometry x="523" y="180" width="80" height="20" as="geometry" />
        </mxCell>
        <mxCell id="YhsctEqUOotuku0o7zmU-30" style="edgeStyle=orthogonalEdgeStyle;rounded=0;orthogonalLoop=1;jettySize=auto;html=1;endArrow=none;endFill=0;" edge="1" parent="1" source="YhsctEqUOotuku0o7zmU-6">
          <mxGeometry relative="1" as="geometry">
            <mxPoint x="491" y="490" as="targetPoint" />
          </mxGeometry>
        </mxCell>
        <mxCell id="YhsctEqUOotuku0o7zmU-6" value="" style="aspect=fixed;pointerEvents=1;shadow=0;dashed=0;html=1;strokeColor=none;labelPosition=center;verticalLabelPosition=bottom;verticalAlign=top;align=center;fillColor=#00188D;shape=mxgraph.azure.computer" vertex="1" parent="1">
          <mxGeometry x="373" y="440" width="50" height="45" as="geometry" />
        </mxCell>
        <mxCell id="YhsctEqUOotuku0o7zmU-31" style="edgeStyle=orthogonalEdgeStyle;rounded=0;orthogonalLoop=1;jettySize=auto;html=1;endArrow=none;endFill=0;" edge="1" parent="1" source="YhsctEqUOotuku0o7zmU-8" target="YhsctEqUOotuku0o7zmU-9">
          <mxGeometry relative="1" as="geometry" />
        </mxCell>
        <mxCell id="YhsctEqUOotuku0o7zmU-8" value="" style="pointerEvents=1;shadow=0;dashed=0;html=1;strokeColor=none;fillColor=#505050;labelPosition=center;verticalLabelPosition=bottom;verticalAlign=top;outlineConnect=0;align=center;shape=mxgraph.office.devices.cell_phone_iphone_proportional;" vertex="1" parent="1">
          <mxGeometry x="380.40999999999997" y="550" width="32.24" height="55" as="geometry" />
        </mxCell>
        <mxCell id="YhsctEqUOotuku0o7zmU-34" style="edgeStyle=orthogonalEdgeStyle;rounded=0;orthogonalLoop=1;jettySize=auto;html=1;endArrow=none;endFill=0;" edge="1" parent="1" source="YhsctEqUOotuku0o7zmU-9" target="YhsctEqUOotuku0o7zmU-33">
          <mxGeometry relative="1" as="geometry" />
        </mxCell>
        <mxCell id="YhsctEqUOotuku0o7zmU-9" value="" style="image;html=1;image=img/lib/clip_art/networking/Wireless_Router_N_128x128.png" vertex="1" parent="1">
          <mxGeometry x="463" y="485" width="55" height="55" as="geometry" />
        </mxCell>
        <mxCell id="YhsctEqUOotuku0o7zmU-39" style="edgeStyle=orthogonalEdgeStyle;rounded=0;orthogonalLoop=1;jettySize=auto;html=1;startArrow=none;startFill=0;endArrow=none;endFill=0;" edge="1" parent="1" source="YhsctEqUOotuku0o7zmU-10" target="YhsctEqUOotuku0o7zmU-11">
          <mxGeometry relative="1" as="geometry" />
        </mxCell>
        <mxCell id="YhsctEqUOotuku0o7zmU-10" value="" style="pointerEvents=1;shadow=0;dashed=0;html=1;strokeColor=none;fillColor=#505050;labelPosition=center;verticalLabelPosition=bottom;verticalAlign=top;outlineConnect=0;align=center;shape=mxgraph.office.devices.ipad_mini;" vertex="1" parent="1">
          <mxGeometry x="840" y="486.5" width="33" height="47" as="geometry" />
        </mxCell>
        <mxCell id="YhsctEqUOotuku0o7zmU-38" style="edgeStyle=orthogonalEdgeStyle;rounded=0;orthogonalLoop=1;jettySize=auto;html=1;entryX=0.5;entryY=1;entryDx=0;entryDy=0;startArrow=none;startFill=0;endArrow=none;endFill=0;" edge="1" parent="1" source="YhsctEqUOotuku0o7zmU-11" target="YhsctEqUOotuku0o7zmU-36">
          <mxGeometry relative="1" as="geometry" />
        </mxCell>
        <mxCell id="YhsctEqUOotuku0o7zmU-11" value="" style="image;html=1;image=img/lib/clip_art/networking/Wireless_Router_128x128.png" vertex="1" parent="1">
          <mxGeometry x="720" y="480" width="60" height="60" as="geometry" />
        </mxCell>
        <mxCell id="YhsctEqUOotuku0o7zmU-12" value="Router" style="text;html=1;align=center;verticalAlign=middle;resizable=0;points=[];autosize=1;strokeColor=none;" vertex="1" parent="1">
          <mxGeometry x="501.25" y="540" width="50" height="20" as="geometry" />
        </mxCell>
        <mxCell id="YhsctEqUOotuku0o7zmU-13" value="Router" style="text;html=1;align=center;verticalAlign=middle;resizable=0;points=[];autosize=1;strokeColor=none;" vertex="1" parent="1">
          <mxGeometry x="725" y="550" width="50" height="20" as="geometry" />
        </mxCell>
        <mxCell id="YhsctEqUOotuku0o7zmU-23" style="edgeStyle=orthogonalEdgeStyle;rounded=0;orthogonalLoop=1;jettySize=auto;html=1;startArrow=none;startFill=0;endArrow=none;endFill=0;" edge="1" parent="1" source="YhsctEqUOotuku0o7zmU-14" target="YhsctEqUOotuku0o7zmU-1">
          <mxGeometry relative="1" as="geometry" />
        </mxCell>
        <mxCell id="YhsctEqUOotuku0o7zmU-14" value="" style="image;html=1;image=img/lib/clip_art/networking/Router_128x128.png" vertex="1" parent="1">
          <mxGeometry x="436.25" y="320" width="60" height="60" as="geometry" />
        </mxCell>
        <mxCell id="YhsctEqUOotuku0o7zmU-22" style="edgeStyle=orthogonalEdgeStyle;rounded=0;orthogonalLoop=1;jettySize=auto;html=1;startArrow=none;startFill=0;endArrow=none;endFill=0;" edge="1" parent="1" source="YhsctEqUOotuku0o7zmU-15" target="YhsctEqUOotuku0o7zmU-3">
          <mxGeometry relative="1" as="geometry" />
        </mxCell>
        <mxCell id="YhsctEqUOotuku0o7zmU-26" style="edgeStyle=orthogonalEdgeStyle;rounded=0;orthogonalLoop=1;jettySize=auto;html=1;endArrow=none;endFill=0;" edge="1" parent="1" source="YhsctEqUOotuku0o7zmU-15" target="YhsctEqUOotuku0o7zmU-14">
          <mxGeometry relative="1" as="geometry" />
        </mxCell>
        <mxCell id="YhsctEqUOotuku0o7zmU-15" value="" style="image;html=1;image=img/lib/clip_art/networking/Router_128x128.png" vertex="1" parent="1">
          <mxGeometry x="533" y="320" width="60" height="60" as="geometry" />
        </mxCell>
        <mxCell id="YhsctEqUOotuku0o7zmU-16" value="Router" style="text;html=1;align=center;verticalAlign=middle;resizable=0;points=[];autosize=1;strokeColor=none;" vertex="1" parent="1">
          <mxGeometry x="439.5" y="380" width="50" height="20" as="geometry" />
        </mxCell>
        <mxCell id="YhsctEqUOotuku0o7zmU-17" value="Router" style="text;html=1;align=center;verticalAlign=middle;resizable=0;points=[];autosize=1;strokeColor=none;" vertex="1" parent="1">
          <mxGeometry x="573" y="380" width="50" height="20" as="geometry" />
        </mxCell>
        <mxCell id="YhsctEqUOotuku0o7zmU-18" value="" style="outlineConnect=0;dashed=0;verticalLabelPosition=bottom;verticalAlign=top;align=center;html=1;shape=mxgraph.aws3.traditional_server;fillColor=#7D7C7C;gradientColor=none;" vertex="1" parent="1">
          <mxGeometry x="644.75" y="218.25" width="46.5" height="63" as="geometry" />
        </mxCell>
        <mxCell id="YhsctEqUOotuku0o7zmU-19" value="banana.com" style="text;html=1;align=center;verticalAlign=middle;resizable=0;points=[];autosize=1;strokeColor=none;" vertex="1" parent="1">
          <mxGeometry x="628" y="180" width="80" height="20" as="geometry" />
        </mxCell>
        <mxCell id="YhsctEqUOotuku0o7zmU-24" style="edgeStyle=orthogonalEdgeStyle;rounded=0;orthogonalLoop=1;jettySize=auto;html=1;endArrow=none;endFill=0;" edge="1" parent="1" source="YhsctEqUOotuku0o7zmU-20" target="YhsctEqUOotuku0o7zmU-18">
          <mxGeometry relative="1" as="geometry" />
        </mxCell>
        <mxCell id="YhsctEqUOotuku0o7zmU-25" style="edgeStyle=orthogonalEdgeStyle;rounded=0;orthogonalLoop=1;jettySize=auto;html=1;endArrow=none;endFill=0;" edge="1" parent="1" source="YhsctEqUOotuku0o7zmU-20" target="YhsctEqUOotuku0o7zmU-15">
          <mxGeometry relative="1" as="geometry" />
        </mxCell>
        <mxCell id="YhsctEqUOotuku0o7zmU-20" value="" style="image;html=1;image=img/lib/clip_art/networking/Router_128x128.png" vertex="1" parent="1">
          <mxGeometry x="638" y="320" width="60" height="60" as="geometry" />
        </mxCell>
        <mxCell id="YhsctEqUOotuku0o7zmU-21" value="Router" style="text;html=1;align=center;verticalAlign=middle;resizable=0;points=[];autosize=1;strokeColor=none;" vertex="1" parent="1">
          <mxGeometry x="691.25" y="380" width="50" height="20" as="geometry" />
        </mxCell>
        <mxCell id="YhsctEqUOotuku0o7zmU-27" value="PC" style="text;html=1;align=center;verticalAlign=middle;resizable=0;points=[];autosize=1;strokeColor=none;" vertex="1" parent="1">
          <mxGeometry x="383" y="490" width="30" height="20" as="geometry" />
        </mxCell>
        <mxCell id="YhsctEqUOotuku0o7zmU-28" value="Phone" style="text;html=1;align=center;verticalAlign=middle;resizable=0;points=[];autosize=1;strokeColor=none;" vertex="1" parent="1">
          <mxGeometry x="375" y="610" width="50" height="20" as="geometry" />
        </mxCell>
        <mxCell id="YhsctEqUOotuku0o7zmU-29" value="iPad" style="text;html=1;align=center;verticalAlign=middle;resizable=0;points=[];autosize=1;strokeColor=none;" vertex="1" parent="1">
          <mxGeometry x="836.5" y="550" width="40" height="20" as="geometry" />
        </mxCell>
        <mxCell id="YhsctEqUOotuku0o7zmU-35" style="edgeStyle=orthogonalEdgeStyle;rounded=0;orthogonalLoop=1;jettySize=auto;html=1;startArrow=none;startFill=0;endArrow=none;endFill=0;" edge="1" parent="1" source="YhsctEqUOotuku0o7zmU-33" target="YhsctEqUOotuku0o7zmU-15">
          <mxGeometry relative="1" as="geometry" />
        </mxCell>
        <mxCell id="YhsctEqUOotuku0o7zmU-33" value="ISP" style="rounded=1;whiteSpace=wrap;html=1;fillColor=#dae8fc;strokeColor=#6c8ebf;" vertex="1" parent="1">
          <mxGeometry x="536.99" y="430" width="52" height="26" as="geometry" />
        </mxCell>
        <mxCell id="YhsctEqUOotuku0o7zmU-40" style="edgeStyle=orthogonalEdgeStyle;rounded=0;orthogonalLoop=1;jettySize=auto;html=1;startArrow=none;startFill=0;endArrow=none;endFill=0;" edge="1" parent="1" source="YhsctEqUOotuku0o7zmU-36" target="YhsctEqUOotuku0o7zmU-20">
          <mxGeometry relative="1" as="geometry" />
        </mxCell>
        <mxCell id="YhsctEqUOotuku0o7zmU-36" value="ISP" style="rounded=1;whiteSpace=wrap;html=1;fillColor=#dae8fc;strokeColor=#6c8ebf;" vertex="1" parent="1">
          <mxGeometry x="642" y="430" width="52" height="26" as="geometry" />
        </mxCell>
        <mxCell id="YhsctEqUOotuku0o7zmU-41" value="&lt;span style=&quot;font-size: 30px;&quot;&gt;How does the Internet work?&lt;/span&gt;" style="text;html=1;align=center;verticalAlign=middle;resizable=0;points=[];autosize=1;strokeColor=none;fontStyle=1;fontSize=30;" vertex="1" parent="1">
          <mxGeometry x="360" y="100" width="430" height="40" as="geometry" />
        </mxCell>
        <mxCell id="YhsctEqUOotuku0o7zmU-46" style="edgeStyle=orthogonalEdgeStyle;rounded=0;orthogonalLoop=1;jettySize=auto;html=1;fontSize=30;startArrow=none;startFill=0;endArrow=none;endFill=0;" edge="1" parent="1" source="YhsctEqUOotuku0o7zmU-43" target="YhsctEqUOotuku0o7zmU-8">
          <mxGeometry relative="1" as="geometry" />
        </mxCell>
        <mxCell id="YhsctEqUOotuku0o7zmU-43" value="" style="shape=image;html=1;verticalAlign=top;verticalLabelPosition=bottom;labelBackgroundColor=#ffffff;imageAspect=0;aspect=fixed;image=https://cdn2.iconfinder.com/data/icons/business-persons-flat-1/512/person_4-128.png;fontSize=30;" vertex="1" parent="1">
          <mxGeometry x="270" y="553.5" width="48" height="48" as="geometry" />
        </mxCell>
        <mxCell id="YhsctEqUOotuku0o7zmU-47" style="edgeStyle=orthogonalEdgeStyle;rounded=0;orthogonalLoop=1;jettySize=auto;html=1;entryX=0;entryY=0.5;entryDx=0;entryDy=0;entryPerimeter=0;fontSize=30;startArrow=none;startFill=0;endArrow=none;endFill=0;" edge="1" parent="1" source="YhsctEqUOotuku0o7zmU-45" target="YhsctEqUOotuku0o7zmU-6">
          <mxGeometry relative="1" as="geometry" />
        </mxCell>
        <mxCell id="YhsctEqUOotuku0o7zmU-45" value="" style="image;html=1;image=img/lib/clip_art/people/Scientist_Man_128x128.png;fontSize=30;" vertex="1" parent="1">
          <mxGeometry x="270" y="437.5" width="50" height="50" as="geometry" />
        </mxCell>
        <mxCell id="YhsctEqUOotuku0o7zmU-49" style="edgeStyle=orthogonalEdgeStyle;rounded=0;orthogonalLoop=1;jettySize=auto;html=1;fontSize=30;startArrow=none;startFill=0;endArrow=none;endFill=0;" edge="1" parent="1" source="YhsctEqUOotuku0o7zmU-48" target="YhsctEqUOotuku0o7zmU-10">
          <mxGeometry relative="1" as="geometry" />
        </mxCell>
        <mxCell id="YhsctEqUOotuku0o7zmU-48" value="" style="image;html=1;image=img/lib/clip_art/people/Suit_Woman_128x128.png;fontSize=30;" vertex="1" parent="1">
          <mxGeometry x="920" y="480" width="60" height="60" as="geometry" />
        </mxCell>
      </root>
    </mxGraphModel>
  </diagram>
</mxfile>
